<svg xmlns="http://www.w3.org/2000/svg" viewBox="0 0 512 512" role="img" aria-label="AgroGuard">
  <defs>
    <linearGradient id="g" x1="0" y1="0" x2="1" y2="1">
      <stop offset="0%" stop-color="#145c3a"/>
      <stop offset="100%" stop-color="#29a269"/>
    </linearGradient>
  </defs>
  <circle cx="256" cy="256" r="236" fill="url(#g)"/>
  <circle cx="256" cy="256" r="186" fill="#2c9f66"/>
  <!-- Drone body -->
  <rect x="170" y="140" width="172" height="76" rx="18" fill="#0c281c"/>
  <rect x="230" y="185" width="52" height="36" rx="8" fill="#e7f7ef"/>
  <circle cx="256" cy="203" r="8" fill="#0c281c"/>
  <rect x="120" y="158" width="50" height="20" rx="8" fill="#0c281c"/>
  <rect x="342" y="158" width="50" height="20" rx="8" fill="#0c281c"/>
  <circle cx="100" cy="176" r="24" stroke="#e7f7ef" stroke-width="8" fill="none"/>
  <circle cx="412" cy="176" r="24" stroke="#e7f7ef" stroke-width="8" fill="none"/>
  <!-- Wheat -->
  <path d="M256 400 L256 250" stroke="#f2d47b" stroke-width="10" stroke-linecap="round"/>
  <ellipse cx="232" cy="290" rx="16" ry="8" fill="#f2d47b"/>
  <ellipse cx="280" cy="290" rx="16" ry="8" fill="#f2d47b"/>
  <ellipse cx="232" cy="320" rx="16" ry="8" fill="#f2d47b"/>
  <ellipse cx="280" cy="320" rx="16" ry="8" fill="#f2d47b"/>
  <ellipse cx="232" cy="350" rx="16" ry="8" fill="#f2d47b"/>
  <ellipse cx="280" cy="350" rx="16" ry="8" fill="#f2d47b"/>
</svg>
