<svg xmlns="http://www.w3.org/2000/svg" viewBox="0 0 900 520" role="img" aria-label="Tarim bilgi bankasi gorseli">
  <defs>
    <linearGradient id="kbg" x1="0" y1="0" x2="1" y2="1">
      <stop offset="0" stop-color="#f1fff4"/>
      <stop offset="1" stop-color="#dff4e4"/>
    </linearGradient>
  </defs>
  <rect width="900" height="520" fill="url(#kbg)"/>
  <rect x="120" y="110" width="660" height="320" rx="22" fill="#ffffff"/>
  <rect x="160" y="150" width="200" height="24" rx="12" fill="#d7efdc"/>
  <rect x="160" y="196" width="560" height="12" rx="6" fill="#e8f3ea"/>
  <rect x="160" y="224" width="520" height="12" rx="6" fill="#e8f3ea"/>
  <rect x="160" y="252" width="540" height="12" rx="6" fill="#e8f3ea"/>
  <rect x="160" y="280" width="500" height="12" rx="6" fill="#e8f3ea"/>
  <rect x="160" y="325" width="170" height="64" rx="12" fill="#e7f4ea"/>
  <rect x="350" y="325" width="170" height="64" rx="12" fill="#e3f1ff"/>
  <rect x="540" y="325" width="170" height="64" rx="12" fill="#fff0df"/>
  <circle cx="720" cy="148" r="18" fill="#78bb84"/>
  <path d="M714 148 l5 5 l9 -10" stroke="#fff" stroke-width="4" fill="none" stroke-linecap="round"/>
</svg>
